<svg xmlns="http://www.w3.org/2000/svg" xmlns:xlink="http://www.w3.org/1999/xlink" version="1.1" x="0px" y="0px" viewBox="0 0 100 100" enable-background="new 0 0 100 100" xml:space="preserve"><path d="M8.7,5C6.7,5,5,6.7,5,8.7v73.4c0,0.9,0.3,1.9,1,2.6l9.1,9.1c0.7,0.7,1.7,1.1,2.6,1.1h73.4c2.1,0,3.8-1.7,3.8-3.8V8.7  c0-2-1.7-3.7-3.8-3.7H8.7z M74.8,87.6c0,2-1.2,3.5-2.8,3.5H28.1c-1.7,0-2.9-1.5-2.9-3.5V61.8c0-1.9,1.2-3.7,2.9-3.7h43.9  c1.7,0,2.8,1.8,2.8,3.7V87.6z M78.5,39.4c0,2.1-1.7,3.7-3.7,3.7H25.2c-1.9,0-3.7-1.7-3.7-3.7V15.5c0-2.1,1.7-3.7,3.7-3.7h49.6  c2,0,3.7,1.7,3.7,3.7V39.4z M42.1,82.9V66.5h-9.1v16.5H42.1z"></path></svg>